<svg xmlns="http://www.w3.org/2000/svg" version="1.1" xmlns:xlink="http://www.w3.org/1999/xlink" xmlns:svgjs="http://svgjs.dev/svgjs" width="600" height="252" viewBox="0 0 2000 252"><g transform="matrix(1,0,0,1,-1.2121212121212466,-0.2370838423614856)"><svg viewBox="0 0 396 50" data-background-color="#ffffff" preserveAspectRatio="xMidYMid meet" height="152" width="350" xmlns="http://www.w3.org/2000/svg" xmlns:xlink="http://www.w3.org/1999/xlink"><g id="tight-bounds" transform="matrix(1,0,0,1,0.2400000000000091,0.04704044491299442)"><svg viewBox="0 0 395.52 49.905919110174" height="49.905919110174" width="395.52"><g><svg viewBox="0 0 395.52 49.905919110174" height="49.905919110174" width="395.52"><g><svg viewBox="0 0 562.6838944867579 70.99832353067815" height="49.905919110174" width="395.52"><g transform="matrix(1,0,0,1,167.16389448675798,9.812358751345535)"><svg viewBox="0 0 395.52 51.37360602798708" height="51.37360602798708" width="395.52"><g id="textblocktransform"><svg viewBox="0 0 395.52 51.37360602798708" height="51.37360602798708" width="395.52" id="textblock"><g><svg viewBox="0 0 395.52 51.37360602798708" height="51.37360602798708" width="395.52"><g transform="matrix(1,0,0,1,0,0)"><svg width="395.52" viewBox="2.5 -35.6 278.68 36.2" height="51.37360602798708" data-palette-color="#000000"><path d="M18.75 0.6L18.75 0.6Q14.95 0.6 11.93-0.83 8.9-2.25 6.8-4.73 4.7-7.2 3.6-10.5 2.5-13.8 2.5-17.55L2.5-17.55Q2.5-22.7 4.45-26.78 6.4-30.85 10.03-33.23 13.65-35.6 18.75-35.6L18.75-35.6Q22.55-35.6 25.58-34.2 28.6-32.8 30.7-30.3 32.8-27.8 33.93-24.55 35.05-21.3 35.05-17.55L35.05-17.55Q35.05-13.65 33.95-10.78 32.85-7.9 31.35-5.8L31.35-5.8 35.8-3.35 33.65 0.6 28.8-3Q26.95-1.45 24.45-0.43 21.95 0.6 18.75 0.6ZM18.65-3.5L18.65-3.5Q20.7-3.5 22.38-4 24.05-4.5 25.25-5.25L25.25-5.25 21.45-7.65 23.45-11.3 27.95-8.05Q29.15-10 29.68-12.33 30.2-14.65 30.2-17.55L30.2-17.55Q30.2-20.25 29.43-22.75 28.65-25.25 27.18-27.23 25.7-29.2 23.58-30.35 21.45-31.5 18.75-31.5L18.75-31.5Q15.15-31.5 12.6-29.68 10.05-27.85 8.7-24.7 7.35-21.55 7.35-17.55L7.35-17.55Q7.35-14.85 8.1-12.33 8.85-9.8 10.3-7.8 11.75-5.8 13.85-4.65 15.95-3.5 18.65-3.5ZM47.05 0L42.55 0 42.55-35 48.85-35 64.3-5.9 64.3-35 68.8-35 68.8 0 62.6 0 47.05-28.9 47.05 0ZM81 0.6L81 0.6Q78.7 0.6 76.67-0.2 74.65-1 73.3-2.3L73.3-2.3 75.6-5.95Q76.6-4.9 78-4.2 79.4-3.5 80.85-3.5L80.85-3.5Q83.25-3.5 84.65-5.23 86.05-6.95 86.05-11.05L86.05-11.05 86.05-35 90.8-35 90.8-11.55Q90.8-5.2 88.1-2.3 85.4 0.6 81 0.6ZM118.29-15.1L101.29-15.1 101.29-19.2 118.29-19.2 118.29-15.1ZM142.74 0.6L142.74 0.6Q138.19 0.6 134.69-1.58 131.19-3.75 129.24-7.78 127.29-11.8 127.29-17.35L127.29-17.35Q127.29-22.7 129.27-26.83 131.24-30.95 134.87-33.27 138.49-35.6 143.34-35.6L143.34-35.6Q145.84-35.6 147.89-35.13 149.94-34.65 151.74-33.8L151.74-33.8 150.29-29.8Q148.74-30.55 147.12-31 145.49-31.45 143.29-31.45L143.29-31.45Q140.09-31.45 137.57-29.8 135.04-28.15 133.59-25.05 132.14-21.95 132.14-17.55L132.14-17.55Q132.14-13.35 133.57-10.2 134.99-7.05 137.52-5.3 140.04-3.55 143.29-3.55L143.29-3.55Q145.74-3.55 147.54-4.15 149.34-4.75 151.04-5.7L151.04-5.7 152.49-1.75Q150.64-0.75 148.27-0.08 145.89 0.6 142.74 0.6ZM179.79 0L158.99 0 158.99-35 163.74-35 163.74-4.25 179.79-4.25 179.79 0ZM197.04 0.6L197.04 0.6Q193.14 0.6 190.09-0.83 187.04-2.25 184.91-4.73 182.79-7.2 181.66-10.5 180.54-13.8 180.54-17.55L180.54-17.55Q180.54-22.7 182.51-26.78 184.49-30.85 188.19-33.23 191.89-35.6 197.04-35.6L197.04-35.6Q200.89-35.6 203.96-34.2 207.04-32.8 209.19-30.3 211.34-27.8 212.46-24.55 213.59-21.3 213.59-17.55L213.59-17.55Q213.59-13.8 212.46-10.5 211.34-7.2 209.19-4.73 207.04-2.25 203.99-0.83 200.94 0.6 197.04 0.6ZM197.04-3.5L197.04-3.5Q200.89-3.5 203.49-5.35 206.09-7.2 207.41-10.38 208.74-13.55 208.74-17.55L208.74-17.55Q208.74-20.25 207.94-22.75 207.14-25.25 205.64-27.23 204.14-29.2 201.96-30.35 199.79-31.5 197.04-31.5L197.04-31.5Q193.39-31.5 190.76-29.65 188.14-27.8 186.76-24.65 185.39-21.5 185.39-17.55L185.39-17.55Q185.39-14.85 186.16-12.33 186.94-9.8 188.44-7.8 189.94-5.8 192.11-4.65 194.29-3.5 197.04-3.5ZM232.78 0.6L232.78 0.6Q226.73 0.6 223.28-3 219.83-6.6 219.83-13.3L219.83-13.3 219.83-35 224.58-35 224.58-14.05Q224.58-9.05 226.63-6.3 228.68-3.55 232.78-3.55L232.78-3.55Q237.03-3.55 239.13-6.23 241.23-8.9 241.23-14.05L241.23-14.05 241.23-35 245.83-35 245.83-13.5Q245.83-9.1 244.21-5.93 242.58-2.75 239.66-1.07 236.73 0.6 232.78 0.6ZM263.28 0.4L263.28 0.4Q260.43 0.4 258.31 0.25 256.18 0.1 254.08-0.1L254.08-0.1 254.08-34.9Q256.43-35.15 258.68-35.27 260.93-35.4 263.83-35.4L263.83-35.4Q268.33-35.4 271.61-34 274.88-32.6 277.01-30.15 279.13-27.7 280.16-24.48 281.18-21.25 281.18-17.55L281.18-17.55Q281.18-13.9 280.13-10.65 279.08-7.4 276.91-4.93 274.73-2.45 271.36-1.03 267.98 0.4 263.28 0.4ZM263.43-3.75L263.43-3.75Q267.93-3.75 270.78-5.5 273.63-7.25 274.98-10.38 276.33-13.5 276.33-17.55L276.33-17.55Q276.33-21.15 274.98-24.3 273.63-27.45 270.83-29.38 268.03-31.3 263.68-31.3L263.68-31.3Q262.23-31.3 261.03-31.23 259.83-31.15 258.83-31.05L258.83-31.05 258.83-4Q259.88-3.85 261.03-3.8 262.18-3.75 263.43-3.75Z" opacity="1" transform="matrix(1,0,0,1,0,0)" fill="#000000" class="wordmark-text-0" data-fill-palette-color="primary" id="text-0"></path></svg></g></svg></g></svg></g></svg></g><g><svg viewBox="0 0 155.0358190700949 70.99832353067815" height="70.99832353067815" width="155.0358190700949"><g><svg xmlns="http://www.w3.org/2000/svg" xmlns:xlink="http://www.w3.org/1999/xlink" version="1.1" x="0" y="0" viewBox="1 27.277 97.06999999999998 44.45299999999999" enable-background="new 0 0 100 100" xml:space="preserve" height="70.99832353067815" width="155.0358190700949" class="icon-icon-0" data-fill-palette-color="accent" id="icon-0"><g fill="#000000" data-fill-palette-color="accent"><path fill-rule="evenodd" clip-rule="evenodd" fill="#000000" d="M36.748 68.037c-3.109 0-5.631-2.889-5.631-6.441 0-2.373 1.148-4.537 2.928-5.652 0.791-4.125 3.858-7.2 7.543-7.571-0.014-0.294-0.021-0.577-0.021-0.868 0-7.144 4.363-13.14 10.19-14.716-0.693-3.165-3.194-5.512-6.171-5.512-2.935 0-5.4 2.263-6.143 5.337-2.577-2.178-5.757-3.47-9.217-3.47-8.566 0-15.514 7.943-15.514 17.751 0 1.1 0.098 2.186 0.266 3.236-0.35-0.042-0.714-0.06-1.078-0.06-4.749 0-8.671 4.073-9.238 9.333C2.526 60.293 1 62.627 1 65.371c0 3.51 2.493 6.359 5.554 6.359h76.757c2.228 0 4.146-1.52 5.029-3.693H36.748z" data-fill-palette-color="accent"></path><path fill-rule="evenodd" clip-rule="evenodd" fill="#000000" d="M95.238 58.367h-2.144v-1.604c0-2.633-1.778-4.672-3.957-4.672-0.343 0-0.687 0.057-1.022 0.162l-1.842 0.545 0.084-2.17c0.007-0.183 0.014-0.371 0.014-0.557 0-5.943-4.23-10.783-9.427-10.783-1.786 0-3.523 0.574-5.029 1.66l-3.04 2.203 0.946-3.976c0.076-0.343 0.119-0.7 0.119-1.061 0-2.182-1.549-3.954-3.453-3.954-1.548 0-2.921 1.19-3.327 2.89l-0.546 2.248-1.633-1.384c-1.806-1.52-3.95-2.328-6.198-2.328-5.743 0-10.422 5.348-10.422 11.917 0 0.742 0.063 1.478 0.175 2.186l0.351 2.136-1.892-0.256c-0.21-0.025-0.434-0.039-0.65-0.039-2.872 0-5.31 2.451-5.652 5.715l-0.105 0.975-0.812 0.336c-1.113 0.459-1.87 1.682-1.87 3.047 0 1.785 1.274 3.242 2.844 3.242h58.49c1.562 0 2.83-1.457 2.83-3.242S96.8 58.367 95.238 58.367z" data-fill-palette-color="accent"></path></g></svg></g></svg></g></svg></g></svg></g><defs></defs></svg><rect width="395.52" height="49.905919110174" fill="none" stroke="none" visibility="hidden"></rect></g></svg></g></svg>