<svg xmlns="http://www.w3.org/2000/svg" version="1.1" xmlns:xlink="http://www.w3.org/1999/xlink" xmlns:svgjs="http://svgjs.dev/svgjs" width="2000" height="989" viewBox="0 0 2000 989"><g transform="matrix(1,0,0,1,-1.2121212121212466,0.3573894955677588)"><svg viewBox="0 0 396 196" data-background-color="#ffffff" preserveAspectRatio="xMidYMid meet" height="989" width="2000" xmlns="http://www.w3.org/2000/svg" xmlns:xlink="http://www.w3.org/1999/xlink"><g id="tight-bounds" transform="matrix(1,0,0,1,0.2400000000000091,-0.07082744300433319)"><svg viewBox="0 0 395.52 196.14165488600867" height="196.14165488600867" width="395.52"><g><svg viewBox="0 0 395.52 196.14165488600867" height="196.14165488600867" width="395.52"><g><svg viewBox="0 0 397.4975999999999 197.12236316043868" height="196.14165488600867" width="395.52"><g><rect width="397.4975999999999" height="5.638827774831999" x="0" y="101.1748445126361" fill="#000000" opacity="1" stroke-width="0" stroke="transparent" fill-opacity="1" class="rect-qz-0" data-fill-palette-color="primary" rx="1%" id="qz-0" data-palette-color="#000000"></rect></g><g><rect width="397.4975999999999" height="5.638827774831999" x="0" y="114.19433691421155" fill="#000000" opacity="1" stroke-width="0" stroke="transparent" fill-opacity="1" class="rect-qz-1" data-fill-palette-color="primary" rx="1%" id="qz-1" data-palette-color="#000000"></rect></g><g transform="matrix(1,0,0,1,0.9887999999999693,134.59449394253045)"><svg viewBox="0 0 395.52 62.52786921790824" height="62.52786921790824" width="395.52"><g id="textblocktransform"><svg viewBox="0 0 395.52 62.52786921790824" height="62.52786921790824" width="395.52" id="textblock"><g><svg viewBox="0 0 395.52 62.52786921790824" height="62.52786921790824" width="395.52"><g transform="matrix(1,0,0,1,0,0)"><svg width="395.52" viewBox="2.4 -32.55 275.78000000000003 42.550000000000004" height="62.52786921790824" data-palette-color="#000000"><g class="wordmark-text-0" data-fill-palette-color="primary" id="text-0"><path d="M34.8 10L34.8 10Q32.25 10 30.43 9.2 28.6 8.4 27.05 7.15 25.5 5.9 23.85 4.55 22.2 3.2 20.05 2.1L20.05 2.1Q18.45 1.3 16.25 0.8L16.25 0.8Q14.1 0.3 12.05-0.43 10-1.15 8.6-2.25L8.6-2.25Q5.65-4.55 4.03-8 2.4-11.45 2.4-15.35L2.4-15.35Q2.4-19.5 3.83-22.7 5.25-25.9 7.6-28.1 9.95-30.3 12.78-31.43 15.6-32.55 18.35-32.55L18.35-32.55Q22.1-32.55 25.08-31.2 28.05-29.85 30.18-27.55 32.3-25.25 33.4-22.33 34.5-19.4 34.5-16.25L34.5-16.25Q34.5-12.45 33.18-9.3 31.85-6.15 29.53-3.9 27.2-1.65 24.2-0.45L24.2-0.45Q23.95-0.35 23.48-0.23 23-0.1 22.15-0.05L22.15-0.05 22.15 0.05Q23.5 0.2 24.6 0.75L24.6 0.75Q27.05 1.95 29.13 3.55 31.2 5.15 33.08 6.33 34.95 7.5 36.75 7.5L36.75 7.5Q37.7 7.4 38.1 6.9 38.5 6.4 38.5 5.75L38.5 5.75Q38.5 4.6 37.63 3.55 36.75 2.5 35.2 2.45L35.2 2.45Q35.05 1.75 35.75 0.95 36.45 0.15 38.05 0.15L38.05 0.15Q38.6 0.15 39.45 0.55 40.3 0.95 40.95 1.83 41.6 2.7 41.6 4.15L41.6 4.15Q41.6 5.7 40.58 7 39.55 8.3 37.98 9.13 36.4 9.95 34.8 10ZM18.3-1.05L18.3-1.05Q20.95-1.05 22.9-2.27 24.85-3.5 26.1-5.65 27.35-7.8 27.95-10.53 28.55-13.25 28.55-16.25L28.55-16.25Q28.55-20 27.43-23.23 26.3-26.45 24.03-28.43 21.75-30.4 18.3-30.4L18.3-30.4Q14.8-30.4 12.58-28.33 10.35-26.25 9.33-22.88 8.3-19.5 8.3-15.5L8.3-15.5Q8.3-11.75 9.38-8.45 10.45-5.15 12.68-3.1 14.9-1.05 18.3-1.05ZM39.95 0.15L39.95 0.15Q39.45 0.15 39.25-0.2 39.05-0.55 39.05-0.95L39.05-0.95Q39.1-1.8 39.45-1.9 39.8-2 40.3-2L40.3-2Q41.9-2 42.52-2.58 43.15-3.15 43.3-4.03 43.45-4.9 43.45-5.85L43.45-5.85 43.55-25.7Q43.55-28.05 42.75-28.7 41.95-29.35 40.2-29.7L40.2-29.7Q39.45-29.85 39.2-29.98 38.95-30.1 38.95-30.85L38.95-30.85Q38.95-31.7 39.55-31.78 40.15-31.85 40.95-31.85L40.95-31.85Q43.75-31.85 45.47-31.4 47.2-30.95 48.52-29.8 49.85-28.65 51.4-26.55L51.4-26.55 65.1-8.55 65.25-8.55 65.15-25.7Q65.15-26.65 65-27.53 64.85-28.4 64.22-28.98 63.6-29.55 62-29.55L62-29.55Q61.5-29.55 61.15-29.65 60.8-29.75 60.7-30.6L60.7-30.6Q60.7-31 60.92-31.35 61.15-31.7 61.6-31.7L61.6-31.7Q62.7-31.65 63.37-31.63 64.05-31.6 64.72-31.58 65.4-31.55 66.4-31.55L66.4-31.55Q67.4-31.55 68.05-31.58 68.7-31.6 69.37-31.63 70.05-31.65 71.1-31.7L71.1-31.7Q71.6-31.7 71.8-31.35 72-31 72-30.6L72-30.6Q71.95-29.75 71.62-29.65 71.3-29.55 70.75-29.55L70.75-29.55Q69.2-29.55 68.55-28.98 67.9-28.4 67.77-27.53 67.65-26.65 67.6-25.7L67.6-25.7 67.5-0.5Q67.45-0.1 67.02 0.03 66.6 0.15 66.25 0.15L66.25 0.15Q65.3 0.15 64.8-0.5L64.8-0.5 45.95-25.7 45.8-25.7 45.9-5.85Q45.95-4.9 46.07-4.03 46.2-3.15 46.85-2.58 47.5-2 49.05-2L49.05-2Q49.6-2 49.95-1.9 50.3-1.8 50.35-0.95L50.35-0.95Q50.35-0.55 50.12-0.2 49.9 0.15 49.45 0.15L49.45 0.15Q48.4 0.1 47.67 0.08 46.95 0.05 46.27 0.03 45.6 0 44.6 0L44.6 0Q43.6 0 42.97 0.03 42.35 0.05 41.7 0.08 41.05 0.1 39.95 0.15ZM75.65 9.6L75.65 9.6Q74.8 9.75 74.5 8.75L74.5 8.75Q74.25 7.8 75 7.5L75 7.5Q77.6 6.4 78.77 4.4 79.95 2.4 80.27-0.7 80.6-3.8 80.6-8.1L80.6-8.1 80.6-25.7Q80.6-26.65 80.42-27.53 80.25-28.4 79.6-28.98 78.95-29.55 77.35-29.55L77.35-29.55Q76.85-29.55 76.47-29.65 76.1-29.75 76.05-30.6L76.05-30.6Q76.05-31 76.27-31.35 76.5-31.7 76.95-31.7L76.95-31.7Q78.55-31.65 79.97-31.6 81.4-31.55 82.9-31.55L82.9-31.55Q85.95-31.55 89.15-31.7L89.15-31.7Q89.6-31.7 89.82-31.35 90.05-31 90.05-30.6L90.05-30.6Q90-29.75 89.65-29.65 89.3-29.55 88.75-29.55L88.75-29.55Q87.2-29.55 86.52-28.98 85.85-28.4 85.7-27.53 85.55-26.65 85.5-25.7L85.5-25.7 85.5-6.4Q85.5-2.45 84.6 0.85 83.7 4.15 81.55 6.43 79.4 8.7 75.65 9.6ZM106.84-9.95L95.89-9.95Q95.39-9.95 95.07-10.5 94.74-11.05 94.74-11.55L94.74-11.55Q94.74-12.1 95.07-12.63 95.39-13.15 95.89-13.15L95.89-13.15 106.84-13.15Q107.39-13.15 107.69-12.63 107.99-12.1 107.99-11.55L107.99-11.55Q107.99-11.05 107.69-10.5 107.39-9.95 106.84-9.95L106.84-9.95ZM128.89 1L128.89 1Q124.69 1 121.19-1 117.69-3 115.57-6.7 113.44-10.4 113.44-15.55L113.44-15.55Q113.44-20.65 115.44-24.48 117.44-28.3 121.12-30.43 124.79-32.55 129.79-32.55L129.79-32.55Q131.59-32.55 133.52-32.2 135.44-31.85 137.09-31.03 138.74-30.2 139.77-28.85 140.79-27.5 140.79-25.5L140.79-25.5Q140.84-23.35 139.49-21.73 138.14-20.1 135.69-20.1L135.69-20.1Q134.19-20.1 133.56-20.83 132.94-21.55 132.99-21.9L132.99-21.9Q132.99-22.05 133.62-22.43 134.24-22.8 134.87-23.58 135.49-24.35 135.49-25.65L135.49-25.65Q135.49-27.9 133.99-29.23 132.49-30.55 129.74-30.55L129.74-30.55Q126.74-30.55 124.37-28.85 121.99-27.15 120.64-23.88 119.29-20.6 119.29-15.85L119.29-15.85Q119.29-11.85 120.72-8.58 122.14-5.3 124.72-3.38 127.29-1.45 130.69-1.45L130.69-1.45Q133.39-1.45 135.31-2.58 137.24-3.7 138.79-6.2L138.79-6.2Q139.24-7.05 140.39-6.35L140.39-6.35Q140.84-6.05 141.09-5.63 141.34-5.2 140.99-4.75L140.99-4.75Q139.09-2.35 137.39-1.13 135.69 0.1 133.69 0.55 131.69 1 128.89 1ZM145.94 0.15L145.94 0.15Q145.49 0.15 145.29-0.2 145.09-0.55 145.09-0.95L145.09-0.95Q145.14-1.8 145.49-1.9 145.84-2 146.34-2L146.34-2Q147.94-2 148.59-2.58 149.24-3.15 149.41-4.03 149.59-4.9 149.59-5.85L149.59-5.85 149.59-25.7Q149.59-26.65 149.41-27.53 149.24-28.4 148.59-28.98 147.94-29.55 146.34-29.55L146.34-29.55Q145.84-29.55 145.49-29.65 145.14-29.75 145.09-30.6L145.09-30.6Q145.09-31 145.29-31.35 145.49-31.7 145.94-31.7L145.94-31.7Q147.59-31.65 148.99-31.6 150.39-31.55 151.89-31.55L151.89-31.55Q154.94-31.55 158.14-31.7L158.14-31.7Q158.64-31.7 158.84-31.35 159.04-31 159.04-30.6L159.04-30.6Q158.99-29.75 158.64-29.65 158.29-29.55 157.79-29.55L157.79-29.55Q156.24-29.55 155.56-28.98 154.89-28.4 154.74-27.53 154.59-26.65 154.54-25.7L154.54-25.7 154.54-5.1Q154.59-4.45 154.74-3.7 154.89-2.95 155.61-2.45 156.34-1.95 158.04-2L158.04-2 162.54-2Q164.29-2.05 165.21-2.58 166.14-3.1 166.69-4.35 167.24-5.6 167.89-7.8L167.89-7.8Q168.09-8.3 168.56-8.45 169.04-8.6 169.59-8.5L169.59-8.5Q169.99-8.45 170.41-8.15 170.84-7.85 170.79-7.35L170.79-7.35 169.79-1.05Q169.64-0.35 169.31-0.18 168.99 0 168.34 0L168.34 0 151.94 0Q150.44 0 149.01 0.03 147.59 0.05 145.94 0.15ZM189.79 1L189.79 1Q186.14 1 183.19-0.35 180.24-1.7 178.14-4 176.04-6.3 174.94-9.22 173.84-12.15 173.84-15.35L173.84-15.35Q173.84-19.5 175.26-22.7 176.69-25.9 179.04-28.1 181.39-30.3 184.21-31.43 187.04-32.55 189.79-32.55L189.79-32.55Q193.54-32.55 196.51-31.2 199.49-29.85 201.59-27.55 203.69-25.25 204.79-22.33 205.89-19.4 205.89-16.25L205.89-16.25Q205.89-12.1 204.44-8.9 202.99-5.7 200.59-3.5 198.19-1.3 195.36-0.15 192.54 1 189.79 1ZM189.74-1.2L189.74-1.2Q193.29-1.2 195.54-3.3 197.79-5.4 198.86-8.83 199.94-12.25 199.94-16.25L199.94-16.25Q199.94-20 198.81-23.23 197.69-26.45 195.44-28.43 193.19-30.4 189.74-30.4L189.74-30.4Q186.24-30.4 184.01-28.33 181.79-26.25 180.74-22.88 179.69-19.5 179.69-15.5L179.69-15.5Q179.69-11.75 180.76-8.47 181.84-5.2 184.09-3.2 186.34-1.2 189.74-1.2ZM226.18 1L226.18 1Q222.18 1 219.48-0.4 216.78-1.8 215.43-4 214.08-6.2 214.08-8.65L214.08-8.65 214.08-25.7Q214.08-26.65 213.91-27.53 213.73-28.4 213.08-28.98 212.43-29.55 210.83-29.55L210.83-29.55Q210.33-29.55 209.98-29.65 209.63-29.75 209.58-30.6L209.58-30.6Q209.58-31 209.78-31.35 209.98-31.7 210.48-31.7L210.48-31.7Q212.08-31.65 213.48-31.6 214.88-31.55 216.38-31.55L216.38-31.55Q219.43-31.55 222.63-31.7L222.63-31.7Q223.13-31.7 223.33-31.35 223.53-31 223.53-30.6L223.53-30.6Q223.48-29.85 223.23-29.7 222.98-29.55 222.53-29.55L222.53-29.55Q220.83-29.55 220.11-29.03 219.38-28.5 219.23-27.63 219.08-26.75 219.03-25.7L219.03-25.7 219.03-10.1Q219.03-8.8 219.31-7.38 219.58-5.95 220.38-4.73 221.18-3.5 222.76-2.73 224.33-1.95 226.98-1.95L226.98-1.95Q230.38-1.95 232.21-3.08 234.03-4.2 234.73-5.9 235.43-7.6 235.43-9.4L235.43-9.4 235.43-22.55Q235.43-25.85 235.18-27.33 234.93-28.8 234.11-29.18 233.28-29.55 231.58-29.55L231.58-29.55Q231.08-29.55 230.73-29.65 230.38-29.75 230.33-30.6L230.33-30.6Q230.33-31 230.53-31.35 230.73-31.7 231.23-31.7L231.23-31.7Q232.83-31.65 234.08-31.6 235.33-31.55 236.83-31.55L236.83-31.55Q238.33-31.55 239.58-31.6 240.83-31.65 242.43-31.7L242.43-31.7Q242.93-31.7 243.13-31.35 243.33-31 243.33-30.6L243.33-30.6Q243.28-29.85 243.03-29.7 242.78-29.55 242.33-29.55L242.33-29.55Q240.98-29.55 240.16-29.4 239.33-29.25 238.91-28.63 238.48-28 238.36-26.63 238.23-25.25 238.23-22.85L238.23-22.85 238.23-8.9Q238.23-6.25 237.11-4.35 235.98-2.45 234.16-1.28 232.33-0.1 230.23 0.45 228.13 1 226.18 1ZM247.23 0.15L247.23 0.15Q246.78 0.15 246.58-0.2 246.38-0.55 246.38-0.95L246.38-0.95Q246.43-1.8 246.78-1.9 247.13-2 247.63-2L247.63-2Q249.23-2 249.88-2.58 250.53-3.15 250.71-4.03 250.88-4.9 250.88-5.85L250.88-5.85 250.88-25.7Q250.88-26.65 250.71-27.53 250.53-28.4 249.88-28.98 249.23-29.55 247.63-29.55L247.63-29.55Q247.13-29.55 246.78-29.65 246.43-29.75 246.38-30.6L246.38-30.6Q246.38-31 246.58-31.35 246.78-31.7 247.23-31.7L247.23-31.7Q248.88-31.65 250.28-31.6 251.68-31.55 253.18-31.55L253.18-31.55 260.98-31.55Q265.78-31.55 269.68-29.65 273.58-27.75 275.88-24.2 278.18-20.65 278.18-15.6L278.18-15.6Q278.18-11.6 276.63-8.65 275.08-5.7 272.48-3.78 269.88-1.85 266.66-0.93 263.43 0 260.08 0L260.08 0 253.18 0Q251.68 0 250.28 0.03 248.88 0.05 247.23 0.15ZM260.83-1.85L260.83-1.85Q264.88-1.85 267.38-3.58 269.88-5.3 271-8.4 272.13-11.5 272.13-15.6L272.13-15.6Q272.13-19.7 270.68-22.9 269.23-26.1 266.46-27.93 263.68-29.75 259.73-29.75L259.73-29.75Q258.93-29.75 257.63-29.73 256.33-29.7 255.83-29.7L255.83-29.7 255.83-5.25Q255.83-3.25 257.06-2.55 258.28-1.85 260.83-1.85Z" fill="#000000" data-fill-palette-color="primary"></path></g></svg></g></svg></g></svg></g></svg></g><g transform="matrix(1,0,0,1,104.40016294282032,0)"><svg viewBox="0 0 188.6972741143593 86.4135152591492" height="86.4135152591492" width="188.6972741143593"><g><svg xmlns="http://www.w3.org/2000/svg" xmlns:xlink="http://www.w3.org/1999/xlink" version="1.1" x="0" y="0" viewBox="1 27.277 97.06999999999998 44.45299999999999" enable-background="new 0 0 100 100" xml:space="preserve" height="86.4135152591492" width="188.6972741143593" class="icon-icon-0" data-fill-palette-color="accent" id="icon-0"><g fill="#000000" data-fill-palette-color="accent"><path fill-rule="evenodd" clip-rule="evenodd" fill="#000000" d="M36.748 68.037c-3.109 0-5.631-2.889-5.631-6.441 0-2.373 1.148-4.537 2.928-5.652 0.791-4.125 3.858-7.2 7.543-7.571-0.014-0.294-0.021-0.577-0.021-0.868 0-7.144 4.363-13.14 10.19-14.716-0.693-3.165-3.194-5.512-6.171-5.512-2.935 0-5.4 2.263-6.143 5.337-2.577-2.178-5.757-3.47-9.217-3.47-8.566 0-15.514 7.943-15.514 17.751 0 1.1 0.098 2.186 0.266 3.236-0.35-0.042-0.714-0.06-1.078-0.06-4.749 0-8.671 4.073-9.238 9.333C2.526 60.293 1 62.627 1 65.371c0 3.51 2.493 6.359 5.554 6.359h76.757c2.228 0 4.146-1.52 5.029-3.693H36.748z" data-fill-palette-color="accent"></path><path fill-rule="evenodd" clip-rule="evenodd" fill="#000000" d="M95.238 58.367h-2.144v-1.604c0-2.633-1.778-4.672-3.957-4.672-0.343 0-0.687 0.057-1.022 0.162l-1.842 0.545 0.084-2.17c0.007-0.183 0.014-0.371 0.014-0.557 0-5.943-4.23-10.783-9.427-10.783-1.786 0-3.523 0.574-5.029 1.66l-3.04 2.203 0.946-3.976c0.076-0.343 0.119-0.7 0.119-1.061 0-2.182-1.549-3.954-3.453-3.954-1.548 0-2.921 1.19-3.327 2.89l-0.546 2.248-1.633-1.384c-1.806-1.52-3.95-2.328-6.198-2.328-5.743 0-10.422 5.348-10.422 11.917 0 0.742 0.063 1.478 0.175 2.186l0.351 2.136-1.892-0.256c-0.21-0.025-0.434-0.039-0.65-0.039-2.872 0-5.31 2.451-5.652 5.715l-0.105 0.975-0.812 0.336c-1.113 0.459-1.87 1.682-1.87 3.047 0 1.785 1.274 3.242 2.844 3.242h58.49c1.562 0 2.83-1.457 2.83-3.242S96.8 58.367 95.238 58.367z" data-fill-palette-color="accent"></path></g></svg></g></svg></g><g></g></svg></g></svg></g><defs></defs></svg><rect width="395.52" height="196.14165488600867" fill="none" stroke="none" visibility="hidden"></rect></g></svg></g></svg>